<mxfile host="65bd71144e">
    <diagram id="0UlY4OHX-sN2nJbeZaSg" name="Page-1">
        <mxGraphModel dx="2407" dy="1348" grid="1" gridSize="10" guides="1" tooltips="1" connect="1" arrows="1" fold="1" page="1" pageScale="1" pageWidth="827" pageHeight="1169" math="0" shadow="0">
            <root>
                <mxCell id="0"/>
                <mxCell id="1" parent="0"/>
                <mxCell id="13" style="edgeStyle=none;html=1;entryX=0;entryY=0.5;entryDx=0;entryDy=0;fontSize=22;endArrow=none;endFill=0;" parent="1" source="2" target="3" edge="1">
                    <mxGeometry relative="1" as="geometry"/>
                </mxCell>
                <mxCell id="2" value="A" style="whiteSpace=wrap;html=1;fontSize=30;fontStyle=1" parent="1" vertex="1">
                    <mxGeometry x="150" y="400" width="120" height="60" as="geometry"/>
                </mxCell>
                <mxCell id="18" style="edgeStyle=none;html=1;fontSize=30;endArrow=none;endFill=0;entryX=0;entryY=0.532;entryDx=0;entryDy=0;entryPerimeter=0;" parent="1" source="3" target="4" edge="1">
                    <mxGeometry relative="1" as="geometry"/>
                </mxCell>
                <mxCell id="3" value="B" style="whiteSpace=wrap;html=1;fontSize=30;fontStyle=1" parent="1" vertex="1">
                    <mxGeometry x="520" y="400" width="120" height="60" as="geometry"/>
                </mxCell>
                <mxCell id="4" value="" style="whiteSpace=wrap;html=1;fillColor=#fff2cc;strokeColor=#d6b656;" parent="1" vertex="1">
                    <mxGeometry x="810" y="20" width="310" height="770" as="geometry"/>
                </mxCell>
                <mxCell id="5" value="" style="whiteSpace=wrap;html=1;fillColor=#f8cecc;strokeColor=#b85450;" parent="1" vertex="1">
                    <mxGeometry x="-370" y="20" width="310" height="770" as="geometry"/>
                </mxCell>
                <mxCell id="12" style="edgeStyle=none;html=1;entryX=0;entryY=0.5;entryDx=0;entryDy=0;fontSize=22;endArrow=none;endFill=0;" parent="1" source="6" target="2" edge="1">
                    <mxGeometry relative="1" as="geometry"/>
                </mxCell>
                <mxCell id="24" style="edgeStyle=none;html=1;fontSize=30;endArrow=classic;endFill=1;" parent="1" source="6" target="22" edge="1">
                    <mxGeometry relative="1" as="geometry">
                        <Array as="points">
                            <mxPoint x="400" y="540"/>
                        </Array>
                    </mxGeometry>
                </mxCell>
                <mxCell id="6" value="192.168.10.10" style="whiteSpace=wrap;html=1;fontStyle=1;fontSize=22;fillColor=#f5f5f5;fontColor=#333333;strokeColor=#666666;" parent="1" vertex="1">
                    <mxGeometry x="-310" y="400" width="190" height="60" as="geometry"/>
                </mxCell>
                <mxCell id="7" value="192.168.10.11" style="whiteSpace=wrap;html=1;fontStyle=1;fontSize=22;" parent="1" vertex="1">
                    <mxGeometry x="-310" y="530" width="190" height="60" as="geometry"/>
                </mxCell>
                <mxCell id="8" value="192.168.10.9" style="whiteSpace=wrap;html=1;fontStyle=1;fontSize=22;" parent="1" vertex="1">
                    <mxGeometry x="-320" y="100" width="190" height="60" as="geometry"/>
                </mxCell>
                <mxCell id="9" value="192.168.10.5" style="whiteSpace=wrap;html=1;fontStyle=1;fontSize=22;" parent="1" vertex="1">
                    <mxGeometry x="-320" y="180" width="190" height="60" as="geometry"/>
                </mxCell>
                <mxCell id="10" value="192.168.10.2" style="whiteSpace=wrap;html=1;fontStyle=1;fontSize=22;" parent="1" vertex="1">
                    <mxGeometry x="-310" y="330" width="190" height="60" as="geometry"/>
                </mxCell>
                <mxCell id="11" value="192.168.10.4" style="whiteSpace=wrap;html=1;fontStyle=1;fontSize=22;" parent="1" vertex="1">
                    <mxGeometry x="-320" y="250" width="190" height="60" as="geometry"/>
                </mxCell>
                <mxCell id="14" value="g0/1" style="text;strokeColor=none;align=center;fillColor=none;html=1;verticalAlign=middle;whiteSpace=wrap;rounded=0;fontSize=30;fontStyle=1" parent="1" vertex="1">
                    <mxGeometry x="70" y="390" width="80" height="30" as="geometry"/>
                </mxCell>
                <mxCell id="15" value="g0/0" style="text;strokeColor=none;align=center;fillColor=none;html=1;verticalAlign=middle;whiteSpace=wrap;rounded=0;fontSize=30;fontStyle=1" parent="1" vertex="1">
                    <mxGeometry x="270" y="390" width="80" height="30" as="geometry"/>
                </mxCell>
                <mxCell id="16" value="g0/1" style="text;strokeColor=none;align=center;fillColor=none;html=1;verticalAlign=middle;whiteSpace=wrap;rounded=0;fontSize=30;fontStyle=1" parent="1" vertex="1">
                    <mxGeometry x="440" y="390" width="80" height="30" as="geometry"/>
                </mxCell>
                <mxCell id="17" value="g0/0" style="text;strokeColor=none;align=center;fillColor=none;html=1;verticalAlign=middle;whiteSpace=wrap;rounded=0;fontSize=30;fontStyle=1" parent="1" vertex="1">
                    <mxGeometry x="640" y="390" width="80" height="30" as="geometry"/>
                </mxCell>
                <mxCell id="19" value="192.168.10.9" style="whiteSpace=wrap;html=1;fontStyle=1;fontSize=22;" parent="1" vertex="1">
                    <mxGeometry x="860" y="115" width="190" height="60" as="geometry"/>
                </mxCell>
                <mxCell id="20" value="192.168.10.5" style="whiteSpace=wrap;html=1;fontStyle=1;fontSize=22;" parent="1" vertex="1">
                    <mxGeometry x="860" y="195" width="190" height="60" as="geometry"/>
                </mxCell>
                <mxCell id="21" value="192.168.10.4" style="whiteSpace=wrap;html=1;fontStyle=1;fontSize=22;" parent="1" vertex="1">
                    <mxGeometry x="860" y="265" width="190" height="60" as="geometry"/>
                </mxCell>
                <mxCell id="22" value="192.168.30.10" style="whiteSpace=wrap;html=1;fontStyle=1;fontSize=22;fillColor=#f5f5f5;fontColor=#333333;strokeColor=#666666;" parent="1" vertex="1">
                    <mxGeometry x="860" y="390" width="190" height="60" as="geometry"/>
                </mxCell>
                <mxCell id="23" value="192.168.10.11" style="whiteSpace=wrap;html=1;fontStyle=1;fontSize=22;" parent="1" vertex="1">
                    <mxGeometry x="870" y="545" width="190" height="60" as="geometry"/>
                </mxCell>
                <mxCell id="25" value="Extended ACLs" style="text;strokeColor=none;align=center;fillColor=none;html=1;verticalAlign=middle;whiteSpace=wrap;rounded=0;fontSize=30;fontStyle=1" parent="1" vertex="1">
                    <mxGeometry x="270" y="590" width="280" height="30" as="geometry"/>
                </mxCell>
            </root>
        </mxGraphModel>
    </diagram>
    <diagram id="8vgrKliqsBojKzBcg7c4" name="Page-2">
        <mxGraphModel dx="1880" dy="898" grid="1" gridSize="10" guides="1" tooltips="1" connect="1" arrows="1" fold="1" page="1" pageScale="1" pageWidth="827" pageHeight="1169" math="0" shadow="0">
            <root>
                <mxCell id="0"/>
                <mxCell id="1" parent="0"/>
                <mxCell id="b3Npwf0jVGHWu_NJC2DQ-1" style="edgeStyle=none;html=1;entryX=0;entryY=0.5;entryDx=0;entryDy=0;fontSize=22;endArrow=none;endFill=0;" parent="1" source="b3Npwf0jVGHWu_NJC2DQ-2" target="b3Npwf0jVGHWu_NJC2DQ-4" edge="1">
                    <mxGeometry relative="1" as="geometry"/>
                </mxCell>
                <mxCell id="b3Npwf0jVGHWu_NJC2DQ-2" value="A" style="whiteSpace=wrap;html=1;fontSize=30;fontStyle=1" parent="1" vertex="1">
                    <mxGeometry x="150" y="610" width="120" height="60" as="geometry"/>
                </mxCell>
                <mxCell id="b3Npwf0jVGHWu_NJC2DQ-3" style="edgeStyle=none;html=1;fontSize=30;endArrow=none;endFill=0;entryX=0;entryY=0.532;entryDx=0;entryDy=0;entryPerimeter=0;" parent="1" source="b3Npwf0jVGHWu_NJC2DQ-4" target="b3Npwf0jVGHWu_NJC2DQ-5" edge="1">
                    <mxGeometry relative="1" as="geometry"/>
                </mxCell>
                <mxCell id="b3Npwf0jVGHWu_NJC2DQ-4" value="B" style="whiteSpace=wrap;html=1;fontSize=30;fontStyle=1" parent="1" vertex="1">
                    <mxGeometry x="520" y="610" width="120" height="60" as="geometry"/>
                </mxCell>
                <mxCell id="b3Npwf0jVGHWu_NJC2DQ-5" value="" style="whiteSpace=wrap;html=1;fillColor=#fff2cc;strokeColor=#d6b656;" parent="1" vertex="1">
                    <mxGeometry x="810" y="230" width="310" height="770" as="geometry"/>
                </mxCell>
                <mxCell id="b3Npwf0jVGHWu_NJC2DQ-6" value="" style="whiteSpace=wrap;html=1;fillColor=#f8cecc;strokeColor=#b85450;" parent="1" vertex="1">
                    <mxGeometry x="-370" y="230" width="310" height="770" as="geometry"/>
                </mxCell>
                <mxCell id="b3Npwf0jVGHWu_NJC2DQ-7" style="edgeStyle=none;html=1;entryX=0;entryY=0.5;entryDx=0;entryDy=0;fontSize=22;endArrow=none;endFill=0;" parent="1" source="b3Npwf0jVGHWu_NJC2DQ-9" target="b3Npwf0jVGHWu_NJC2DQ-2" edge="1">
                    <mxGeometry relative="1" as="geometry"/>
                </mxCell>
                <mxCell id="b3Npwf0jVGHWu_NJC2DQ-8" style="edgeStyle=none;html=1;fontSize=30;endArrow=classic;endFill=1;" parent="1" source="b3Npwf0jVGHWu_NJC2DQ-9" target="b3Npwf0jVGHWu_NJC2DQ-22" edge="1">
                    <mxGeometry relative="1" as="geometry">
                        <Array as="points">
                            <mxPoint x="400" y="750"/>
                        </Array>
                    </mxGeometry>
                </mxCell>
                <mxCell id="b3Npwf0jVGHWu_NJC2DQ-9" value="192.168.10.10" style="whiteSpace=wrap;html=1;fontStyle=1;fontSize=22;fillColor=#f5f5f5;fontColor=#333333;strokeColor=#666666;" parent="1" vertex="1">
                    <mxGeometry x="-310" y="610" width="190" height="60" as="geometry"/>
                </mxCell>
                <mxCell id="b3Npwf0jVGHWu_NJC2DQ-10" value="192.168.10.11" style="whiteSpace=wrap;html=1;fontStyle=1;fontSize=22;" parent="1" vertex="1">
                    <mxGeometry x="-310" y="740" width="190" height="60" as="geometry"/>
                </mxCell>
                <mxCell id="b3Npwf0jVGHWu_NJC2DQ-11" value="192.168.10.9" style="whiteSpace=wrap;html=1;fontStyle=1;fontSize=22;" parent="1" vertex="1">
                    <mxGeometry x="-320" y="310" width="190" height="60" as="geometry"/>
                </mxCell>
                <mxCell id="b3Npwf0jVGHWu_NJC2DQ-12" value="192.168.10.5" style="whiteSpace=wrap;html=1;fontStyle=1;fontSize=22;" parent="1" vertex="1">
                    <mxGeometry x="-320" y="390" width="190" height="60" as="geometry"/>
                </mxCell>
                <mxCell id="b3Npwf0jVGHWu_NJC2DQ-13" value="192.168.10.2" style="whiteSpace=wrap;html=1;fontStyle=1;fontSize=22;" parent="1" vertex="1">
                    <mxGeometry x="-310" y="540" width="190" height="60" as="geometry"/>
                </mxCell>
                <mxCell id="b3Npwf0jVGHWu_NJC2DQ-14" value="192.168.10.4" style="whiteSpace=wrap;html=1;fontStyle=1;fontSize=22;" parent="1" vertex="1">
                    <mxGeometry x="-320" y="460" width="190" height="60" as="geometry"/>
                </mxCell>
                <mxCell id="b3Npwf0jVGHWu_NJC2DQ-15" value="g0/1" style="text;strokeColor=none;align=center;fillColor=none;html=1;verticalAlign=middle;whiteSpace=wrap;rounded=0;fontSize=30;fontStyle=1" parent="1" vertex="1">
                    <mxGeometry x="70" y="600" width="80" height="30" as="geometry"/>
                </mxCell>
                <mxCell id="b3Npwf0jVGHWu_NJC2DQ-16" value="g0/0" style="text;strokeColor=none;align=center;fillColor=none;html=1;verticalAlign=middle;whiteSpace=wrap;rounded=0;fontSize=30;fontStyle=1" parent="1" vertex="1">
                    <mxGeometry x="270" y="600" width="80" height="30" as="geometry"/>
                </mxCell>
                <mxCell id="b3Npwf0jVGHWu_NJC2DQ-17" value="g0/1" style="text;strokeColor=none;align=center;fillColor=none;html=1;verticalAlign=middle;whiteSpace=wrap;rounded=0;fontSize=30;fontStyle=1" parent="1" vertex="1">
                    <mxGeometry x="440" y="600" width="80" height="30" as="geometry"/>
                </mxCell>
                <mxCell id="b3Npwf0jVGHWu_NJC2DQ-18" value="g0/0" style="text;strokeColor=none;align=center;fillColor=none;html=1;verticalAlign=middle;whiteSpace=wrap;rounded=0;fontSize=30;fontStyle=1" parent="1" vertex="1">
                    <mxGeometry x="640" y="600" width="80" height="30" as="geometry"/>
                </mxCell>
                <mxCell id="b3Npwf0jVGHWu_NJC2DQ-19" value="192.168.10.9" style="whiteSpace=wrap;html=1;fontStyle=1;fontSize=22;" parent="1" vertex="1">
                    <mxGeometry x="860" y="325" width="190" height="60" as="geometry"/>
                </mxCell>
                <mxCell id="b3Npwf0jVGHWu_NJC2DQ-22" value="192.168.30.10" style="whiteSpace=wrap;html=1;fontStyle=1;fontSize=22;fillColor=#f5f5f5;fontColor=#333333;strokeColor=#666666;" parent="1" vertex="1">
                    <mxGeometry x="860" y="600" width="190" height="60" as="geometry"/>
                </mxCell>
                <mxCell id="b3Npwf0jVGHWu_NJC2DQ-23" value="192.168.10.11" style="whiteSpace=wrap;html=1;fontStyle=1;fontSize=22;" parent="1" vertex="1">
                    <mxGeometry x="870" y="755" width="190" height="60" as="geometry"/>
                </mxCell>
                <mxCell id="b3Npwf0jVGHWu_NJC2DQ-24" value="Extended ACLs" style="text;strokeColor=none;align=center;fillColor=none;html=1;verticalAlign=middle;whiteSpace=wrap;rounded=0;fontSize=30;fontStyle=1" parent="1" vertex="1">
                    <mxGeometry x="270" y="800" width="280" height="30" as="geometry"/>
                </mxCell>
            </root>
        </mxGraphModel>
    </diagram>
    <diagram id="mnw6O_dAOA_vyXxfnMIV" name="Page-3">
        <mxGraphModel dx="2407" dy="1348" grid="1" gridSize="10" guides="1" tooltips="1" connect="1" arrows="1" fold="1" page="1" pageScale="1" pageWidth="827" pageHeight="1169" math="0" shadow="0">
            <root>
                <mxCell id="0"/>
                <mxCell id="1" parent="0"/>
                <mxCell id="qiKhLjcVldPr6qVWAG5T-5" style="edgeStyle=none;html=1;entryX=0;entryY=0.5;entryDx=0;entryDy=0;fontSize=30;endArrow=none;endFill=0;" parent="1" source="qiKhLjcVldPr6qVWAG5T-3" target="qiKhLjcVldPr6qVWAG5T-4" edge="1">
                    <mxGeometry relative="1" as="geometry"/>
                </mxCell>
                <mxCell id="qiKhLjcVldPr6qVWAG5T-6" style="edgeStyle=none;html=1;fontSize=30;endArrow=none;endFill=0;" parent="1" source="qiKhLjcVldPr6qVWAG5T-3" edge="1">
                    <mxGeometry relative="1" as="geometry">
                        <mxPoint x="-40" y="260" as="targetPoint"/>
                    </mxGeometry>
                </mxCell>
                <mxCell id="qiKhLjcVldPr6qVWAG5T-8" style="edgeStyle=none;html=1;fontSize=30;endArrow=none;endFill=0;startArrow=none;" parent="1" source="lUwlNmR_XIKcpNRuKI1E-3" edge="1">
                    <mxGeometry relative="1" as="geometry">
                        <mxPoint x="180" y="450" as="targetPoint"/>
                    </mxGeometry>
                </mxCell>
                <mxCell id="qiKhLjcVldPr6qVWAG5T-3" value="A" style="whiteSpace=wrap;html=1;fontSize=30;" parent="1" vertex="1">
                    <mxGeometry x="120" y="230" width="120" height="60" as="geometry"/>
                </mxCell>
                <mxCell id="qiKhLjcVldPr6qVWAG5T-7" style="edgeStyle=none;html=1;fontSize=30;endArrow=none;endFill=0;" parent="1" source="qiKhLjcVldPr6qVWAG5T-4" edge="1">
                    <mxGeometry relative="1" as="geometry">
                        <mxPoint x="880" y="260" as="targetPoint"/>
                    </mxGeometry>
                </mxCell>
                <mxCell id="qiKhLjcVldPr6qVWAG5T-9" style="edgeStyle=none;html=1;fontSize=30;endArrow=none;endFill=0;" parent="1" source="qiKhLjcVldPr6qVWAG5T-4" edge="1">
                    <mxGeometry relative="1" as="geometry">
                        <mxPoint x="580" y="440" as="targetPoint"/>
                    </mxGeometry>
                </mxCell>
                <mxCell id="qiKhLjcVldPr6qVWAG5T-4" value="B" style="whiteSpace=wrap;html=1;fontSize=30;" parent="1" vertex="1">
                    <mxGeometry x="520" y="230" width="120" height="60" as="geometry"/>
                </mxCell>
                <mxCell id="qiKhLjcVldPr6qVWAG5T-10" value="PC1" style="whiteSpace=wrap;html=1;fontSize=30;" parent="1" vertex="1">
                    <mxGeometry x="130" y="440" width="60" height="60" as="geometry"/>
                </mxCell>
                <mxCell id="qiKhLjcVldPr6qVWAG5T-12" value="PC2" style="whiteSpace=wrap;html=1;fontSize=30;" parent="1" vertex="1">
                    <mxGeometry x="530" y="430" width="60" height="60" as="geometry"/>
                </mxCell>
                <mxCell id="qiKhLjcVldPr6qVWAG5T-13" value="172.16.10.0/24" style="text;strokeColor=none;align=center;fillColor=none;html=1;verticalAlign=middle;whiteSpace=wrap;rounded=0;fontSize=30;fontStyle=1" parent="1" vertex="1">
                    <mxGeometry x="-130" y="220" width="220" height="30" as="geometry"/>
                </mxCell>
                <mxCell id="qiKhLjcVldPr6qVWAG5T-14" value="172.16.30.0/24" style="text;strokeColor=none;align=center;fillColor=none;html=1;verticalAlign=middle;whiteSpace=wrap;rounded=0;fontSize=30;fontStyle=1" parent="1" vertex="1">
                    <mxGeometry x="680" y="220" width="220" height="30" as="geometry"/>
                </mxCell>
                <mxCell id="qiKhLjcVldPr6qVWAG5T-15" value="172.16.50.10/24" style="text;strokeColor=none;align=center;fillColor=none;html=1;verticalAlign=middle;whiteSpace=wrap;rounded=0;fontSize=30;fontStyle=1" parent="1" vertex="1">
                    <mxGeometry x="510" y="510" width="220" height="30" as="geometry"/>
                </mxCell>
                <mxCell id="qiKhLjcVldPr6qVWAG5T-16" value="172.16.40.10/24" style="text;strokeColor=none;align=center;fillColor=none;html=1;verticalAlign=middle;whiteSpace=wrap;rounded=0;fontSize=30;fontStyle=1" parent="1" vertex="1">
                    <mxGeometry x="60" y="520" width="220" height="30" as="geometry"/>
                </mxCell>
                <mxCell id="qiKhLjcVldPr6qVWAG5T-17" value="172.16.20.10/24" style="text;strokeColor=none;align=center;fillColor=none;html=1;verticalAlign=middle;whiteSpace=wrap;rounded=0;fontSize=30;fontStyle=1" parent="1" vertex="1">
                    <mxGeometry x="270" y="210" width="220" height="30" as="geometry"/>
                </mxCell>
                <mxCell id="qiKhLjcVldPr6qVWAG5T-18" value="PC1 ≠ 172.16.30.0" style="text;strokeColor=none;align=center;fillColor=none;html=1;verticalAlign=middle;whiteSpace=wrap;rounded=0;fontSize=30;fontStyle=1" parent="1" vertex="1">
                    <mxGeometry x="270" y="90" width="260" height="30" as="geometry"/>
                </mxCell>
                <mxCell id="qiKhLjcVldPr6qVWAG5T-19" value="PC2 ≠ 172.16.10.0" style="text;strokeColor=none;align=center;fillColor=none;html=1;verticalAlign=middle;whiteSpace=wrap;rounded=0;fontSize=30;fontStyle=1" parent="1" vertex="1">
                    <mxGeometry x="270" y="140" width="260" height="30" as="geometry"/>
                </mxCell>
                <mxCell id="qiKhLjcVldPr6qVWAG5T-20" value="access-list 10 deny host 172.16.40.10&amp;nbsp;&amp;nbsp;" style="text;strokeColor=none;align=center;fillColor=none;html=1;verticalAlign=middle;whiteSpace=wrap;rounded=0;fontSize=44;fontStyle=1" parent="1" vertex="1">
                    <mxGeometry x="-600" y="620" width="880" height="90" as="geometry"/>
                </mxCell>
                <mxCell id="qiKhLjcVldPr6qVWAG5T-21" value="access-list 10 deny host 172.16.50.10 172.16.10.0 0.0.0.255&amp;nbsp;" style="text;strokeColor=none;align=center;fillColor=none;html=1;verticalAlign=middle;whiteSpace=wrap;rounded=0;fontSize=44;fontStyle=1" parent="1" vertex="1">
                    <mxGeometry x="630" y="640" width="1290" height="60" as="geometry"/>
                </mxCell>
                <mxCell id="qiKhLjcVldPr6qVWAG5T-22" value="access-list permit any any" style="text;strokeColor=none;align=center;fillColor=none;html=1;verticalAlign=middle;whiteSpace=wrap;rounded=0;fontSize=44;fontStyle=1" parent="1" vertex="1">
                    <mxGeometry x="-600" y="560" width="630" height="90" as="geometry"/>
                </mxCell>
                <mxCell id="qiKhLjcVldPr6qVWAG5T-23" value="access-list permit any any" style="text;strokeColor=none;align=center;fillColor=none;html=1;verticalAlign=middle;whiteSpace=wrap;rounded=0;fontSize=44;fontStyle=1" parent="1" vertex="1">
                    <mxGeometry x="639" y="580" width="590" height="70" as="geometry"/>
                </mxCell>
                <mxCell id="qiKhLjcVldPr6qVWAG5T-24" value="int g0/0" style="text;strokeColor=none;align=center;fillColor=none;html=1;verticalAlign=middle;whiteSpace=wrap;rounded=0;fontSize=44;fontStyle=1" parent="1" vertex="1">
                    <mxGeometry x="-560" y="520" width="170" height="60" as="geometry"/>
                </mxCell>
                <mxCell id="lUwlNmR_XIKcpNRuKI1E-1" value="g0/1" style="text;strokeColor=none;align=center;fillColor=none;html=1;verticalAlign=middle;whiteSpace=wrap;rounded=0;fontSize=22;fontStyle=1" parent="1" vertex="1">
                    <mxGeometry x="56" y="263" width="60" height="30" as="geometry"/>
                </mxCell>
                <mxCell id="lUwlNmR_XIKcpNRuKI1E-4" value="" style="edgeStyle=none;html=1;fontSize=30;endArrow=none;endFill=0;" parent="1" source="qiKhLjcVldPr6qVWAG5T-3" target="lUwlNmR_XIKcpNRuKI1E-3" edge="1">
                    <mxGeometry relative="1" as="geometry">
                        <mxPoint x="180" y="450" as="targetPoint"/>
                        <mxPoint x="180" y="290" as="sourcePoint"/>
                    </mxGeometry>
                </mxCell>
                <mxCell id="lUwlNmR_XIKcpNRuKI1E-3" value="g0/0" style="text;strokeColor=none;align=center;fillColor=none;html=1;verticalAlign=middle;whiteSpace=wrap;rounded=0;fontSize=22;fontStyle=1" parent="1" vertex="1">
                    <mxGeometry x="150" y="320" width="60" height="30" as="geometry"/>
                </mxCell>
                <mxCell id="lUwlNmR_XIKcpNRuKI1E-5" value="g0/2" style="text;strokeColor=none;align=center;fillColor=none;html=1;verticalAlign=middle;whiteSpace=wrap;rounded=0;fontSize=22;fontStyle=1" parent="1" vertex="1">
                    <mxGeometry x="242" y="260" width="60" height="30" as="geometry"/>
                </mxCell>
            </root>
        </mxGraphModel>
    </diagram>
    <diagram id="x_h6fKPlHFfj3eo7HCe-" name="Page-4">
        <mxGraphModel dx="632" dy="539" grid="1" gridSize="10" guides="1" tooltips="1" connect="1" arrows="1" fold="1" page="1" pageScale="1" pageWidth="827" pageHeight="1169" math="0" shadow="0">
            <root>
                <mxCell id="0"/>
                <mxCell id="1" parent="0"/>
                <mxCell id="3lRHEb8qV3t9PXgICuxa-3" style="edgeStyle=none;html=1;entryX=0;entryY=0.5;entryDx=0;entryDy=0;fontSize=22;endArrow=none;endFill=0;" parent="1" source="3lRHEb8qV3t9PXgICuxa-1" target="3lRHEb8qV3t9PXgICuxa-2" edge="1">
                    <mxGeometry relative="1" as="geometry">
                        <Array as="points">
                            <mxPoint x="320" y="340"/>
                            <mxPoint x="420" y="370"/>
                            <mxPoint x="550" y="340"/>
                        </Array>
                    </mxGeometry>
                </mxCell>
                <mxCell id="3lRHEb8qV3t9PXgICuxa-1" value="" style="whiteSpace=wrap;html=1;fontSize=22;" parent="1" vertex="1">
                    <mxGeometry x="120" y="230" width="120" height="60" as="geometry"/>
                </mxCell>
                <mxCell id="3lRHEb8qV3t9PXgICuxa-2" value="" style="whiteSpace=wrap;html=1;fontSize=22;" parent="1" vertex="1">
                    <mxGeometry x="600" y="220" width="120" height="60" as="geometry"/>
                </mxCell>
                <mxCell id="3lRHEb8qV3t9PXgICuxa-5" style="edgeStyle=none;html=1;entryX=0;entryY=0.5;entryDx=0;entryDy=0;fontSize=22;endArrow=none;endFill=0;" parent="1" source="3lRHEb8qV3t9PXgICuxa-6" target="3lRHEb8qV3t9PXgICuxa-7" edge="1">
                    <mxGeometry relative="1" as="geometry"/>
                </mxCell>
                <mxCell id="3lRHEb8qV3t9PXgICuxa-6" value="" style="whiteSpace=wrap;html=1;fontSize=22;" parent="1" vertex="1">
                    <mxGeometry x="120" y="340" width="120" height="60" as="geometry"/>
                </mxCell>
                <mxCell id="3lRHEb8qV3t9PXgICuxa-7" value="" style="whiteSpace=wrap;html=1;fontSize=22;" parent="1" vertex="1">
                    <mxGeometry x="600" y="340" width="120" height="60" as="geometry"/>
                </mxCell>
                <mxCell id="3lRHEb8qV3t9PXgICuxa-9" style="edgeStyle=none;html=1;entryX=0;entryY=0.5;entryDx=0;entryDy=0;fontSize=22;endArrow=none;endFill=0;" parent="1" source="3lRHEb8qV3t9PXgICuxa-10" target="3lRHEb8qV3t9PXgICuxa-11" edge="1">
                    <mxGeometry relative="1" as="geometry">
                        <Array as="points">
                            <mxPoint x="310" y="400"/>
                            <mxPoint x="430" y="370"/>
                            <mxPoint x="550" y="400"/>
                        </Array>
                    </mxGeometry>
                </mxCell>
                <mxCell id="3lRHEb8qV3t9PXgICuxa-10" value="" style="whiteSpace=wrap;html=1;fontSize=22;" parent="1" vertex="1">
                    <mxGeometry x="120" y="460" width="120" height="60" as="geometry"/>
                </mxCell>
                <mxCell id="3lRHEb8qV3t9PXgICuxa-11" value="" style="whiteSpace=wrap;html=1;fontSize=22;" parent="1" vertex="1">
                    <mxGeometry x="600" y="460" width="120" height="60" as="geometry"/>
                </mxCell>
                <mxCell id="3lRHEb8qV3t9PXgICuxa-12" value="Packet-switching" style="text;strokeColor=none;align=center;fillColor=none;html=1;verticalAlign=middle;whiteSpace=wrap;rounded=0;fontSize=22;fontStyle=1" parent="1" vertex="1">
                    <mxGeometry x="280" y="160" width="240" height="30" as="geometry"/>
                </mxCell>
                <mxCell id="3lRHEb8qV3t9PXgICuxa-14" value="" style="whiteSpace=wrap;html=1;fontSize=22;" parent="1" vertex="1">
                    <mxGeometry x="310" y="340" width="240" height="60" as="geometry"/>
                </mxCell>
                <mxCell id="3lRHEb8qV3t9PXgICuxa-16" value="5 Mbps" style="text;strokeColor=none;align=center;fillColor=none;html=1;verticalAlign=middle;whiteSpace=wrap;rounded=0;fontSize=22;fontStyle=1" parent="1" vertex="1">
                    <mxGeometry x="50" y="190" width="240" height="30" as="geometry"/>
                </mxCell>
                <mxCell id="3lRHEb8qV3t9PXgICuxa-17" value="5 Mbps" style="text;strokeColor=none;align=center;fillColor=none;html=1;verticalAlign=middle;whiteSpace=wrap;rounded=0;fontSize=22;fontStyle=1" parent="1" vertex="1">
                    <mxGeometry x="20" y="310" width="240" height="30" as="geometry"/>
                </mxCell>
                <mxCell id="3lRHEb8qV3t9PXgICuxa-18" value="5 Mbps" style="text;strokeColor=none;align=center;fillColor=none;html=1;verticalAlign=middle;whiteSpace=wrap;rounded=0;fontSize=22;fontStyle=1" parent="1" vertex="1">
                    <mxGeometry x="30" y="530" width="240" height="30" as="geometry"/>
                </mxCell>
            </root>
        </mxGraphModel>
    </diagram>
</mxfile>